<?xml version="1.0" standalone="no"?><svg xmlns="http://www.w3.org/2000/svg" viewBox="0 0 1440 320"><path fill="#0099ff" fill-opacity="1" d="M0,96L20,85.3C40,75,80,53,120,53.3C160,53,200,75,240,90.7C280,107,320,117,360,101.3C400,85,440,43,480,53.3C520,64,560,128,600,133.3C640,139,680,85,720,58.7C760,32,800,32,840,26.7C880,21,920,11,960,53.3C1000,96,1040,192,1080,197.3C1120,203,1160,117,1200,106.7C1240,96,1280,160,1320,160C1360,160,1400,96,1420,64L1440,32L1440,320L1420,320C1400,320,1360,320,1320,320C1280,320,1240,320,1200,320C1160,320,1120,320,1080,320C1040,320,1000,320,960,320C920,320,880,320,840,320C800,320,760,320,720,320C680,320,640,320,600,320C560,320,520,320,480,320C440,320,400,320,360,320C320,320,280,320,240,320C200,320,160,320,120,320C80,320,40,320,20,320L0,320Z"></path></svg>