<?xml version="1.0" standalone="no"?><svg xmlns="http://www.w3.org/2000/svg" viewBox="0 0 1440 320"><path fill="#0099ff" fill-opacity="1" d="M0,32L16,32C32,32,64,32,96,53.3C128,75,160,117,192,144C224,171,256,181,288,165.3C320,149,352,107,384,80C416,53,448,43,480,58.7C512,75,544,117,576,112C608,107,640,53,672,58.7C704,64,736,128,768,160C800,192,832,192,864,170.7C896,149,928,107,960,101.3C992,96,1024,128,1056,165.3C1088,203,1120,245,1152,266.7C1184,288,1216,288,1248,282.7C1280,277,1312,267,1344,240C1376,213,1408,171,1424,149.3L1440,128L1440,320L1424,320C1408,320,1376,320,1344,320C1312,320,1280,320,1248,320C1216,320,1184,320,1152,320C1120,320,1088,320,1056,320C1024,320,992,320,960,320C928,320,896,320,864,320C832,320,800,320,768,320C736,320,704,320,672,320C640,320,608,320,576,320C544,320,512,320,480,320C448,320,416,320,384,320C352,320,320,320,288,320C256,320,224,320,192,320C160,320,128,320,96,320C64,320,32,320,16,320L0,320Z"></path></svg>