<?xml version="1.0" standalone="no"?><svg xmlns="http://www.w3.org/2000/svg" viewBox="0 0 1440 320"><path fill="#0099ff" fill-opacity="1" d="M0,128L10,144C20,160,40,192,60,218.7C80,245,100,267,120,250.7C140,235,160,181,180,165.3C200,149,220,171,240,186.7C260,203,280,213,300,197.3C320,181,340,139,360,106.7C380,75,400,53,420,48C440,43,460,53,480,58.7C500,64,520,64,540,58.7C560,53,580,43,600,69.3C620,96,640,160,660,160C680,160,700,96,720,69.3C740,43,760,53,780,90.7C800,128,820,192,840,192C860,192,880,128,900,85.3C920,43,940,21,960,26.7C980,32,1000,64,1020,85.3C1040,107,1060,117,1080,128C1100,139,1120,149,1140,138.7C1160,128,1180,96,1200,85.3C1220,75,1240,85,1260,117.3C1280,149,1300,203,1320,240C1340,277,1360,299,1380,272C1400,245,1420,171,1430,133.3L1440,96L1440,320L1430,320C1420,320,1400,320,1380,320C1360,320,1340,320,1320,320C1300,320,1280,320,1260,320C1240,320,1220,320,1200,320C1180,320,1160,320,1140,320C1120,320,1100,320,1080,320C1060,320,1040,320,1020,320C1000,320,980,320,960,320C940,320,920,320,900,320C880,320,860,320,840,320C820,320,800,320,780,320C760,320,740,320,720,320C700,320,680,320,660,320C640,320,620,320,600,320C580,320,560,320,540,320C520,320,500,320,480,320C460,320,440,320,420,320C400,320,380,320,360,320C340,320,320,320,300,320C280,320,260,320,240,320C220,320,200,320,180,320C160,320,140,320,120,320C100,320,80,320,60,320C40,320,20,320,10,320L0,320Z"></path></svg>